<?xml version="1.0" encoding="UTF-8" standalone="no"?>
<!DOCTYPE svg PUBLIC "-//W3C//DTD SVG 1.1//EN"
 "http://www.w3.org/Graphics/SVG/1.1/DTD/svg11.dtd">
<!-- Generated by graphviz version 2.50.0 (20211209.0339)
 -->
<!-- Title: snakemake_dag Pages: 1 -->
<svg width="897pt" height="692pt"
 viewBox="0.00 0.00 897.00 692.00" xmlns="http://www.w3.org/2000/svg" xmlns:xlink="http://www.w3.org/1999/xlink">
<g id="graph0" class="graph" transform="scale(1 1) rotate(0) translate(4 688)">
<title>snakemake_dag</title>
<polygon fill="white" stroke="transparent" points="-4,4 -4,-688 893,-688 893,4 -4,4"/>
<!-- 0 -->
<g id="node1" class="node">
<title>0</title>
<path fill="none" stroke="#d87556" stroke-width="2" d="M598.5,-36C598.5,-36 527.5,-36 527.5,-36 521.5,-36 515.5,-30 515.5,-24 515.5,-24 515.5,-12 515.5,-12 515.5,-6 521.5,0 527.5,0 527.5,0 598.5,0 598.5,0 604.5,0 610.5,-6 610.5,-12 610.5,-12 610.5,-24 610.5,-24 610.5,-30 604.5,-36 598.5,-36"/>
<text text-anchor="middle" x="563" y="-15.5" font-family="sans" font-size="10.00">make_summary</text>
</g>
<!-- 1 -->
<g id="node2" class="node">
<title>1</title>
<path fill="none" stroke="#56d863" stroke-width="2" d="M203.5,-108C203.5,-108 132.5,-108 132.5,-108 126.5,-108 120.5,-102 120.5,-96 120.5,-96 120.5,-84 120.5,-84 120.5,-78 126.5,-72 132.5,-72 132.5,-72 203.5,-72 203.5,-72 209.5,-72 215.5,-78 215.5,-84 215.5,-84 215.5,-96 215.5,-96 215.5,-102 209.5,-108 203.5,-108"/>
<text text-anchor="middle" x="168" y="-87.5" font-family="sans" font-size="10.00">make_rulegraph</text>
</g>
<!-- 1&#45;&gt;0 -->
<g id="edge8" class="edge">
<title>1&#45;&gt;0</title>
<path fill="none" stroke="grey" stroke-width="2" d="M215.6,-75.38C220.44,-74.17 225.31,-73.01 230,-72 325.59,-51.35 438.24,-35.08 504.96,-26.27"/>
<polygon fill="grey" stroke="grey" stroke-width="2" points="505.81,-29.69 515.27,-24.92 504.9,-22.75 505.81,-29.69"/>
</g>
<!-- 2 -->
<g id="node3" class="node">
<title>2</title>
<path fill="none" stroke="#d8b456" stroke-width="2" d="M280,-252C280,-252 194,-252 194,-252 188,-252 182,-246 182,-240 182,-240 182,-228 182,-228 182,-222 188,-216 194,-216 194,-216 280,-216 280,-216 286,-216 292,-222 292,-228 292,-228 292,-240 292,-240 292,-246 286,-252 280,-252"/>
<text text-anchor="middle" x="237" y="-231.5" font-family="sans" font-size="10.00">get_mut_bind_expr</text>
</g>
<!-- 2&#45;&gt;0 -->
<g id="edge3" class="edge">
<title>2&#45;&gt;0</title>
<path fill="none" stroke="grey" stroke-width="2" d="M245.77,-215.97C250.98,-205.66 257.6,-192.18 263,-180 283.95,-132.77 266.41,-105.19 306,-72 335.62,-47.17 438.87,-31.97 505.14,-24.55"/>
<polygon fill="grey" stroke="grey" stroke-width="2" points="505.88,-27.99 515.44,-23.42 505.12,-21.03 505.88,-27.99"/>
</g>
<!-- 3 -->
<g id="node4" class="node">
<title>3</title>
<path fill="none" stroke="#5673d8" stroke-width="2" d="M242,-180C242,-180 168,-180 168,-180 162,-180 156,-174 156,-168 156,-168 156,-156 156,-156 156,-150 162,-144 168,-144 168,-144 242,-144 242,-144 248,-144 254,-150 254,-156 254,-156 254,-168 254,-168 254,-174 248,-180 242,-180"/>
<text text-anchor="middle" x="205" y="-159.5" font-family="sans" font-size="10.00">bind_expr_filters</text>
</g>
<!-- 2&#45;&gt;3 -->
<g id="edge15" class="edge">
<title>2&#45;&gt;3</title>
<path fill="none" stroke="grey" stroke-width="2" d="M229.09,-215.7C225.45,-207.73 221.05,-198.1 217.01,-189.26"/>
<polygon fill="grey" stroke="grey" stroke-width="2" points="220.16,-187.74 212.82,-180.1 213.79,-190.65 220.16,-187.74"/>
</g>
<!-- 13 -->
<g id="node14" class="node">
<title>13</title>
<path fill="none" stroke="#56b1d8" stroke-width="2" d="M597,-180C597,-180 529,-180 529,-180 523,-180 517,-174 517,-168 517,-168 517,-156 517,-156 517,-150 523,-144 529,-144 529,-144 597,-144 597,-144 603,-144 609,-150 609,-156 609,-156 609,-168 609,-168 609,-174 603,-180 597,-180"/>
<text text-anchor="middle" x="563" y="-159.5" font-family="sans" font-size="10.00">escape_profiles</text>
</g>
<!-- 2&#45;&gt;13 -->
<g id="edge26" class="edge">
<title>2&#45;&gt;13</title>
<path fill="none" stroke="grey" stroke-width="2" d="M292.3,-221.13C352.06,-208.29 446.78,-187.96 506.86,-175.05"/>
<polygon fill="grey" stroke="grey" stroke-width="2" points="507.89,-178.41 516.93,-172.89 506.42,-171.57 507.89,-178.41"/>
</g>
<!-- 3&#45;&gt;0 -->
<g id="edge13" class="edge">
<title>3&#45;&gt;0</title>
<path fill="none" stroke="grey" stroke-width="2" d="M212.19,-143.82C221.75,-123.24 240.68,-89.37 268,-72 306.53,-47.5 430.87,-31.69 505.26,-24.16"/>
<polygon fill="grey" stroke="grey" stroke-width="2" points="505.81,-27.62 515.41,-23.15 505.12,-20.66 505.81,-27.62"/>
</g>
<!-- 4 -->
<g id="node5" class="node">
<title>4</title>
<path fill="none" stroke="#9fd856" stroke-width="2" d="M152,-252C152,-252 12,-252 12,-252 6,-252 0,-246 0,-240 0,-240 0,-228 0,-228 0,-222 6,-216 12,-216 12,-216 152,-216 152,-216 158,-216 164,-222 164,-228 164,-228 164,-240 164,-240 164,-246 158,-252 152,-252"/>
<text text-anchor="middle" x="82" y="-231.5" font-family="sans" font-size="10.00">get_early2020_mut_bind_expr</text>
</g>
<!-- 4&#45;&gt;3 -->
<g id="edge14" class="edge">
<title>4&#45;&gt;3</title>
<path fill="none" stroke="grey" stroke-width="2" d="M112.09,-215.88C128.32,-206.64 148.54,-195.13 165.97,-185.21"/>
<polygon fill="grey" stroke="grey" stroke-width="2" points="167.84,-188.18 174.8,-180.19 164.37,-182.09 167.84,-188.18"/>
</g>
<!-- 5 -->
<g id="node6" class="node">
<title>5</title>
<path fill="none" stroke="#88d856" stroke-width="2" d="M458.5,-612C458.5,-612 407.5,-612 407.5,-612 401.5,-612 395.5,-606 395.5,-600 395.5,-600 395.5,-588 395.5,-588 395.5,-582 401.5,-576 407.5,-576 407.5,-576 458.5,-576 458.5,-576 464.5,-576 470.5,-582 470.5,-588 470.5,-588 470.5,-600 470.5,-600 470.5,-606 464.5,-612 458.5,-612"/>
<text text-anchor="middle" x="433" y="-591.5" font-family="sans" font-size="10.00">process_ccs</text>
</g>
<!-- 5&#45;&gt;0 -->
<g id="edge12" class="edge">
<title>5&#45;&gt;0</title>
<path fill="none" stroke="grey" stroke-width="2" d="M406.22,-575.91C372.8,-552.25 320,-506.14 320,-451 320,-451 320,-451 320,-161 320,-117.99 325.39,-100.04 358,-72 398.86,-36.87 460.14,-24.59 505.06,-20.52"/>
<polygon fill="grey" stroke="grey" stroke-width="2" points="505.55,-23.99 515.24,-19.71 504.99,-17.01 505.55,-23.99"/>
</g>
<!-- 7 -->
<g id="node8" class="node">
<title>7</title>
<path fill="none" stroke="#5692d8" stroke-width="2" d="M608,-540C608,-540 546,-540 546,-540 540,-540 534,-534 534,-528 534,-528 534,-516 534,-516 534,-510 540,-504 546,-504 546,-504 608,-504 608,-504 614,-504 620,-510 620,-516 620,-516 620,-528 620,-528 620,-534 614,-540 608,-540"/>
<text text-anchor="middle" x="577" y="-519.5" font-family="sans" font-size="10.00">build_variants</text>
</g>
<!-- 5&#45;&gt;7 -->
<g id="edge17" class="edge">
<title>5&#45;&gt;7</title>
<path fill="none" stroke="grey" stroke-width="2" d="M468.23,-575.88C487.58,-566.47 511.77,-554.71 532.43,-544.67"/>
<polygon fill="grey" stroke="grey" stroke-width="2" points="534.17,-547.71 541.64,-540.19 531.11,-541.41 534.17,-547.71"/>
</g>
<!-- 6 -->
<g id="node7" class="node">
<title>6</title>
<path fill="none" stroke="#56d0d8" stroke-width="2" d="M448,-684C448,-684 418,-684 418,-684 412,-684 406,-678 406,-672 406,-672 406,-660 406,-660 406,-654 412,-648 418,-648 418,-648 448,-648 448,-648 454,-648 460,-654 460,-660 460,-660 460,-672 460,-672 460,-678 454,-684 448,-684"/>
<text text-anchor="middle" x="433" y="-663.5" font-family="sans" font-size="10.00">get_ccs</text>
</g>
<!-- 6&#45;&gt;5 -->
<g id="edge16" class="edge">
<title>6&#45;&gt;5</title>
<path fill="none" stroke="grey" stroke-width="2" d="M433,-647.7C433,-639.98 433,-630.71 433,-622.11"/>
<polygon fill="grey" stroke="grey" stroke-width="2" points="436.5,-622.1 433,-612.1 429.5,-622.1 436.5,-622.1"/>
</g>
<!-- 7&#45;&gt;0 -->
<g id="edge6" class="edge">
<title>7&#45;&gt;0</title>
<path fill="none" stroke="grey" stroke-width="2" d="M620.05,-520.49C705.64,-516.97 889,-495.79 889,-379 889,-379 889,-379 889,-161 889,-45.42 714.62,-22.95 620.93,-19.21"/>
<polygon fill="grey" stroke="grey" stroke-width="2" points="620.87,-15.71 610.75,-18.87 620.63,-22.71 620.87,-15.71"/>
</g>
<!-- 8 -->
<g id="node9" class="node">
<title>8</title>
<path fill="none" stroke="#68d856" stroke-width="2" d="M637.5,-396C637.5,-396 518.5,-396 518.5,-396 512.5,-396 506.5,-390 506.5,-384 506.5,-384 506.5,-372 506.5,-372 506.5,-366 512.5,-360 518.5,-360 518.5,-360 637.5,-360 637.5,-360 643.5,-360 649.5,-366 649.5,-372 649.5,-372 649.5,-384 649.5,-384 649.5,-390 643.5,-396 637.5,-396"/>
<text text-anchor="middle" x="578" y="-375.5" font-family="sans" font-size="10.00">aggregate_variant_counts</text>
</g>
<!-- 7&#45;&gt;8 -->
<g id="edge18" class="edge">
<title>7&#45;&gt;8</title>
<path fill="none" stroke="grey" stroke-width="2" d="M570.35,-503.63C566.8,-493.42 562.8,-480.17 561,-468 558.66,-452.17 558.53,-447.81 561,-432 562.36,-423.31 564.9,-414.1 567.61,-405.84"/>
<polygon fill="grey" stroke="grey" stroke-width="2" points="570.94,-406.93 570.93,-396.33 564.33,-404.62 570.94,-406.93"/>
</g>
<!-- 9 -->
<g id="node10" class="node">
<title>9</title>
<path fill="none" stroke="#56d8c1" stroke-width="2" d="M646.5,-468C646.5,-468 581.5,-468 581.5,-468 575.5,-468 569.5,-462 569.5,-456 569.5,-456 569.5,-444 569.5,-444 569.5,-438 575.5,-432 581.5,-432 581.5,-432 646.5,-432 646.5,-432 652.5,-432 658.5,-438 658.5,-444 658.5,-444 658.5,-456 658.5,-456 658.5,-462 652.5,-468 646.5,-468"/>
<text text-anchor="middle" x="614" y="-447.5" font-family="sans" font-size="10.00">count_variants</text>
</g>
<!-- 7&#45;&gt;9 -->
<g id="edge20" class="edge">
<title>7&#45;&gt;9</title>
<path fill="none" stroke="grey" stroke-width="2" d="M586.15,-503.7C590.4,-495.64 595.56,-485.89 600.27,-476.98"/>
<polygon fill="grey" stroke="grey" stroke-width="2" points="603.38,-478.58 604.96,-468.1 597.19,-475.31 603.38,-478.58"/>
</g>
<!-- 8&#45;&gt;0 -->
<g id="edge7" class="edge">
<title>8&#45;&gt;0</title>
<path fill="none" stroke="grey" stroke-width="2" d="M649.73,-370.44C730.61,-358.64 851,-325.82 851,-235 851,-235 851,-235 851,-161 851,-59.32 704.81,-30.45 620.74,-22.25"/>
<polygon fill="grey" stroke="grey" stroke-width="2" points="620.83,-18.74 610.56,-21.33 620.2,-25.72 620.83,-18.74"/>
</g>
<!-- 10 -->
<g id="node11" class="node">
<title>10</title>
<path fill="none" stroke="#d89556" stroke-width="2" d="M476.5,-324C476.5,-324 381.5,-324 381.5,-324 375.5,-324 369.5,-318 369.5,-312 369.5,-312 369.5,-300 369.5,-300 369.5,-294 375.5,-288 381.5,-288 381.5,-288 476.5,-288 476.5,-288 482.5,-288 488.5,-294 488.5,-300 488.5,-300 488.5,-312 488.5,-312 488.5,-318 482.5,-324 476.5,-324"/>
<text text-anchor="middle" x="429" y="-303.5" font-family="sans" font-size="10.00">counts_to_cells_ratio</text>
</g>
<!-- 8&#45;&gt;10 -->
<g id="edge21" class="edge">
<title>8&#45;&gt;10</title>
<path fill="none" stroke="grey" stroke-width="2" d="M541.55,-359.88C521.36,-350.39 496.08,-338.51 474.59,-328.42"/>
<polygon fill="grey" stroke="grey" stroke-width="2" points="475.87,-325.15 465.33,-324.07 472.89,-331.49 475.87,-325.15"/>
</g>
<!-- 11 -->
<g id="node12" class="node">
<title>11</title>
<path fill="none" stroke="#56d8a2" stroke-width="2" d="M616.5,-324C616.5,-324 539.5,-324 539.5,-324 533.5,-324 527.5,-318 527.5,-312 527.5,-312 527.5,-300 527.5,-300 527.5,-294 533.5,-288 539.5,-288 539.5,-288 616.5,-288 616.5,-288 622.5,-288 628.5,-294 628.5,-300 628.5,-300 628.5,-312 628.5,-312 628.5,-318 622.5,-324 616.5,-324"/>
<text text-anchor="middle" x="578" y="-303.5" font-family="sans" font-size="10.00">counts_to_scores</text>
</g>
<!-- 8&#45;&gt;11 -->
<g id="edge22" class="edge">
<title>8&#45;&gt;11</title>
<path fill="none" stroke="grey" stroke-width="2" d="M578,-359.7C578,-351.98 578,-342.71 578,-334.11"/>
<polygon fill="grey" stroke="grey" stroke-width="2" points="581.5,-334.1 578,-324.1 574.5,-334.1 581.5,-334.1"/>
</g>
<!-- 9&#45;&gt;8 -->
<g id="edge19" class="edge">
<title>9&#45;&gt;8</title>
<path fill="none" stroke="grey" stroke-width="2" d="M605.1,-431.7C601,-423.73 596.05,-414.1 591.51,-405.26"/>
<polygon fill="grey" stroke="grey" stroke-width="2" points="594.48,-403.4 586.8,-396.1 588.26,-406.6 594.48,-403.4"/>
</g>
<!-- 10&#45;&gt;0 -->
<g id="edge2" class="edge">
<title>10&#45;&gt;0</title>
<path fill="none" stroke="grey" stroke-width="2" d="M416.84,-287.81C389.12,-246.31 327.4,-139.13 378,-72 393.44,-51.51 456.94,-36.53 505.27,-27.82"/>
<polygon fill="grey" stroke="grey" stroke-width="2" points="506.09,-31.24 515.33,-26.06 504.88,-24.34 506.09,-31.24"/>
</g>
<!-- 11&#45;&gt;0 -->
<g id="edge9" class="edge">
<title>11&#45;&gt;0</title>
<path fill="none" stroke="grey" stroke-width="2" d="M628.52,-296.13C653.95,-288.84 682.58,-275.66 698,-252 706.73,-238.59 700.21,-231.85 698,-216 688.8,-150.1 698.19,-124.27 657,-72 646.82,-59.08 632.57,-48.79 618.24,-40.85"/>
<polygon fill="grey" stroke="grey" stroke-width="2" points="619.82,-37.73 609.34,-36.2 616.58,-43.93 619.82,-37.73"/>
</g>
<!-- 12 -->
<g id="node13" class="node">
<title>12</title>
<path fill="none" stroke="#56d882" stroke-width="2" d="M677,-252C677,-252 563,-252 563,-252 557,-252 551,-246 551,-240 551,-240 551,-228 551,-228 551,-222 557,-216 563,-216 563,-216 677,-216 677,-216 683,-216 689,-222 689,-228 689,-228 689,-240 689,-240 689,-246 683,-252 677,-252"/>
<text text-anchor="middle" x="620" y="-231.5" font-family="sans" font-size="10.00">call_strong_escape_sites</text>
</g>
<!-- 11&#45;&gt;12 -->
<g id="edge23" class="edge">
<title>11&#45;&gt;12</title>
<path fill="none" stroke="grey" stroke-width="2" d="M588.38,-287.7C593.26,-279.56 599.19,-269.69 604.58,-260.7"/>
<polygon fill="grey" stroke="grey" stroke-width="2" points="607.59,-262.48 609.74,-252.1 601.59,-258.88 607.59,-262.48"/>
</g>
<!-- 11&#45;&gt;13 -->
<g id="edge25" class="edge">
<title>11&#45;&gt;13</title>
<path fill="none" stroke="grey" stroke-width="2" d="M562.39,-287.77C554.63,-278.03 546.05,-265.18 542,-252 535.62,-231.26 542.04,-207.29 549.41,-189.46"/>
<polygon fill="grey" stroke="grey" stroke-width="2" points="552.65,-190.8 553.53,-180.24 546.25,-187.95 552.65,-190.8"/>
</g>
<!-- 14 -->
<g id="node15" class="node">
<title>14</title>
<path fill="none" stroke="#bed856" stroke-width="2" d="M810.5,-180C810.5,-180 757.5,-180 757.5,-180 751.5,-180 745.5,-174 745.5,-168 745.5,-168 745.5,-156 745.5,-156 745.5,-150 751.5,-144 757.5,-144 757.5,-144 810.5,-144 810.5,-144 816.5,-144 822.5,-150 822.5,-156 822.5,-156 822.5,-168 822.5,-168 822.5,-174 816.5,-180 810.5,-180"/>
<text text-anchor="middle" x="784" y="-159.5" font-family="sans" font-size="10.00">output_pdbs</text>
</g>
<!-- 11&#45;&gt;14 -->
<g id="edge27" class="edge">
<title>11&#45;&gt;14</title>
<path fill="none" stroke="grey" stroke-width="2" d="M628.51,-296.74C660.64,-289.4 701.58,-275.97 731,-252 751.16,-235.58 765.45,-209.32 774.08,-189.57"/>
<polygon fill="grey" stroke="grey" stroke-width="2" points="777.36,-190.78 777.96,-180.2 770.9,-188.1 777.36,-190.78"/>
</g>
<!-- 15 -->
<g id="node16" class="node">
<title>15</title>
<path fill="none" stroke="#d8d356" stroke-width="2" d="M600.5,-108C600.5,-108 525.5,-108 525.5,-108 519.5,-108 513.5,-102 513.5,-96 513.5,-96 513.5,-84 513.5,-84 513.5,-78 519.5,-72 525.5,-72 525.5,-72 600.5,-72 600.5,-72 606.5,-72 612.5,-78 612.5,-84 612.5,-84 612.5,-96 612.5,-96 612.5,-102 606.5,-108 600.5,-108"/>
<text text-anchor="middle" x="563" y="-87.5" font-family="sans" font-size="10.00">make_supp_data</text>
</g>
<!-- 11&#45;&gt;15 -->
<g id="edge28" class="edge">
<title>11&#45;&gt;15</title>
<path fill="none" stroke="grey" stroke-width="2" d="M561.74,-287.9C552.95,-278 542.42,-264.95 535,-252 518.01,-222.34 514.1,-213.63 508,-180 505.15,-164.26 501.74,-158.72 508,-144 512.73,-132.86 521.08,-122.93 529.87,-114.76"/>
<polygon fill="grey" stroke="grey" stroke-width="2" points="532.35,-117.24 537.62,-108.05 527.77,-111.95 532.35,-117.24"/>
</g>
<!-- 16 -->
<g id="node17" class="node">
<title>16</title>
<path fill="none" stroke="#d85656" stroke-width="2" d="M483.5,-108C483.5,-108 398.5,-108 398.5,-108 392.5,-108 386.5,-102 386.5,-96 386.5,-96 386.5,-84 386.5,-84 386.5,-78 392.5,-72 398.5,-72 398.5,-72 483.5,-72 483.5,-72 489.5,-72 495.5,-78 495.5,-84 495.5,-84 495.5,-96 495.5,-96 495.5,-102 489.5,-108 483.5,-108"/>
<text text-anchor="middle" x="441" y="-87.5" font-family="sans" font-size="10.00">lineplots_by_group</text>
</g>
<!-- 11&#45;&gt;16 -->
<g id="edge30" class="edge">
<title>11&#45;&gt;16</title>
<path fill="none" stroke="grey" stroke-width="2" d="M551.77,-288C538.82,-278.59 523.71,-265.99 513,-252 480.94,-210.14 459.44,-151.76 448.79,-118.01"/>
<polygon fill="grey" stroke="grey" stroke-width="2" points="452.11,-116.91 445.84,-108.38 445.42,-118.96 452.11,-116.91"/>
</g>
<!-- 12&#45;&gt;0 -->
<g id="edge10" class="edge">
<title>12&#45;&gt;0</title>
<path fill="none" stroke="grey" stroke-width="2" d="M627.87,-215.88C640.76,-185.15 662.57,-119.45 638,-72 631.63,-59.7 620.95,-49.65 609.62,-41.73"/>
<polygon fill="grey" stroke="grey" stroke-width="2" points="611.18,-38.58 600.88,-36.09 607.39,-44.46 611.18,-38.58"/>
</g>
<!-- 12&#45;&gt;13 -->
<g id="edge24" class="edge">
<title>12&#45;&gt;13</title>
<path fill="none" stroke="grey" stroke-width="2" d="M605.91,-215.7C599.08,-207.3 590.74,-197.07 583.24,-187.86"/>
<polygon fill="grey" stroke="grey" stroke-width="2" points="585.96,-185.65 576.93,-180.1 580.53,-190.07 585.96,-185.65"/>
</g>
<!-- 13&#45;&gt;0 -->
<g id="edge11" class="edge">
<title>13&#45;&gt;0</title>
<path fill="none" stroke="grey" stroke-width="2" d="M590.8,-143.87C602.77,-134.84 615.5,-122.59 622,-108 628.52,-93.39 628.52,-86.61 622,-72 616.92,-60.6 608.04,-50.63 598.69,-42.51"/>
<polygon fill="grey" stroke="grey" stroke-width="2" points="600.78,-39.69 590.8,-36.13 596.37,-45.14 600.78,-39.69"/>
</g>
<!-- 13&#45;&gt;15 -->
<g id="edge29" class="edge">
<title>13&#45;&gt;15</title>
<path fill="none" stroke="grey" stroke-width="2" d="M563,-143.7C563,-135.98 563,-126.71 563,-118.11"/>
<polygon fill="grey" stroke="grey" stroke-width="2" points="566.5,-118.1 563,-108.1 559.5,-118.1 566.5,-118.1"/>
</g>
<!-- 14&#45;&gt;0 -->
<g id="edge5" class="edge">
<title>14&#45;&gt;0</title>
<path fill="none" stroke="grey" stroke-width="2" d="M778.05,-143.69C770.29,-123.61 754.83,-90.86 731,-72 699.35,-46.95 655.69,-33.64 620.81,-26.63"/>
<polygon fill="grey" stroke="grey" stroke-width="2" points="621.23,-23.14 610.75,-24.73 619.93,-30.02 621.23,-23.14"/>
</g>
<!-- 15&#45;&gt;0 -->
<g id="edge4" class="edge">
<title>15&#45;&gt;0</title>
<path fill="none" stroke="grey" stroke-width="2" d="M563,-71.7C563,-63.98 563,-54.71 563,-46.11"/>
<polygon fill="grey" stroke="grey" stroke-width="2" points="566.5,-46.1 563,-36.1 559.5,-46.1 566.5,-46.1"/>
</g>
<!-- 16&#45;&gt;0 -->
<g id="edge1" class="edge">
<title>16&#45;&gt;0</title>
<path fill="none" stroke="grey" stroke-width="2" d="M470.84,-71.88C486.94,-62.64 507,-51.13 524.29,-41.21"/>
<polygon fill="grey" stroke="grey" stroke-width="2" points="526.11,-44.2 533.04,-36.19 522.63,-38.13 526.11,-44.2"/>
</g>
</g>
</svg>
